{
  "accessors": [
    {
      "bufferView": 2,
      "componentType": 5126,
      "count": 65532,
      "max": [
        9.994050025939941,
        9.282549858093262,
        0.32589998841285706
      ],
      "min": [
        -9.422060012817383,
        -8.864520072937012,
        -0.26475998759269714
      ],
      "type": "VEC3"
    },
    {
      "bufferView": 2,
      "byteOffset": 786384,
      "componentType": 5126,
      "count": 65532,
      "max": [
        0.9999210834503174,
        0.9999906420707703,
        1.0
      ],
      "min": [
        -0.9999127388000488,
        -0.9999359846115112,
        -0.9791568517684937
      ],
      "type": "VEC3"
    },
    {
      "bufferView": 3,
      "componentType": 5126,
      "count": 65532,
      "max": [
        0.999464213848114,
        0.9999817609786987,
        0.9999839663505554,
        1.0
      ],
      "min": [
        -1.0,
        -0.9999680519104004,
        -0.9999933838844299,
        -1.0
      ],
      "type": "VEC4"
    },
    {
      "bufferView": 1,
      "componentType": 5126,
      "count": 65532,
      "max": [
        0.9984300136566162,
        0.9975500106811523
      ],
      "min": [
        0.0015699999639764428,
        0.0015699999639764428
      ],
      "type": "VEC2"
    },
    {
      "bufferView": 1,
      "byteOffset": 524256,
      "componentType": 5126,
      "count": 65532,
      "max": [
        0.9984300136566162,
        0.9975500106811523
      ],
      "min": [
        0.0015699999639764428,
        0.0015699999639764428
      ],
      "type": "VEC2"
    },
    {
      "bufferView": 1,
      "byteOffset": 1048512,
      "componentType": 5126,
      "count": 65532,
      "max": [
        0.9984300136566162,
        0.9975500106811523
      ],
      "min": [
        0.0015699999639764428,
        0.0015699999639764428
      ],
      "type": "VEC2"
    },
    {
      "bufferView": 1,
      "byteOffset": 1572768,
      "componentType": 5126,
      "count": 65532,
      "max": [
        0.9984300136566162,
        0.9975500106811523
      ],
      "min": [
        0.0015699999639764428,
        0.0015699999639764428
      ],
      "type": "VEC2"
    },
    {
      "bufferView": 0,
      "componentType": 5125,
      "count": 341817,
      "type": "SCALAR"
    },
    {
      "bufferView": 2,
      "byteOffset": 1572768,
      "componentType": 5126,
      "count": 50024,
      "max": [
        9.994050025939941,
        9.047100067138672,
        0.32589998841285706
      ],
      "min": [
        -9.422060012817383,
        -8.864520072937012,
        -0.26475998759269714
      ],
      "type": "VEC3"
    },
    {
      "bufferView": 2,
      "byteOffset": 2173056,
      "componentType": 5126,
      "count": 50024,
      "max": [
        0.9999210834503174,
        0.9999905228614807,
        1.0
      ],
      "min": [
        -0.9999127388000488,
        -0.9999359846115112,
        -0.9791568517684937
      ],
      "type": "VEC3"
    },
    {
      "bufferView": 3,
      "byteOffset": 1048512,
      "componentType": 5126,
      "count": 50024,
      "max": [
        0.999437689781189,
        0.9999817609786987,
        0.9999757409095764,
        1.0
      ],
      "min": [
        -1.0,
        -1.0,
        -0.9999924302101135,
        -1.0
      ],
      "type": "VEC4"
    },
    {
      "bufferView": 1,
      "byteOffset": 2097024,
      "componentType": 5126,
      "count": 50024,
      "max": [
        0.9905800223350525,
        0.997189998626709
      ],
      "min": [
        0.0015699999639764428,
        0.0015699999639764428
      ],
      "type": "VEC2"
    },
    {
      "bufferView": 1,
      "byteOffset": 2497216,
      "componentType": 5126,
      "count": 50024,
      "max": [
        0.9905800223350525,
        0.997189998626709
      ],
      "min": [
        0.0015699999639764428,
        0.0015699999639764428
      ],
      "type": "VEC2"
    },
    {
      "bufferView": 1,
      "byteOffset": 2897408,
      "componentType": 5126,
      "count": 50024,
      "max": [
        0.9905800223350525,
        0.997189998626709
      ],
      "min": [
        0.0015699999639764428,
        0.0015699999639764428
      ],
      "type": "VEC2"
    },
    {
      "bufferView": 1,
      "byteOffset": 3297600,
      "componentType": 5126,
      "count": 50024,
      "max": [
        0.9905800223350525,
        0.997189998626709
      ],
      "min": [
        0.0015699999639764428,
        0.0015699999639764428
      ],
      "type": "VEC2"
    },
    {
      "bufferView": 0,
      "byteOffset": 1367268,
      "componentType": 5125,
      "count": 268356,
      "type": "SCALAR"
    }
  ],
  "asset": {
    "extras": {
      "author": "mhart (https://sketchfab.com/mhart)",
      "license": "CC-BY-4.0 (http://creativecommons.org/licenses/by/4.0/)",
      "source": "https://sketchfab.com/3d-models/rocky-ground-with-moss-2c0386dd36124ad78f37dbf6432eac21",
      "title": "Rocky Ground with Moss"
    },
    "generator": "Sketchfab-12.68.0",
    "version": "2.0"
  },
  "bufferViews": [
    {
      "buffer": 0,
      "byteLength": 2440692,
      "name": "floatBufferViews",
      "target": 34963
    },
    {
      "buffer": 0,
      "byteLength": 3697792,
      "byteOffset": 2440692,
      "byteStride": 8,
      "name": "floatBufferViews",
      "target": 34962
    },
    {
      "buffer": 0,
      "byteLength": 2773344,
      "byteOffset": 6138484,
      "byteStride": 12,
      "name": "floatBufferViews",
      "target": 34962
    },
    {
      "buffer": 0,
      "byteLength": 1848896,
      "byteOffset": 8911828,
      "byteStride": 16,
      "name": "floatBufferViews",
      "target": 34962
    }
  ],
  "buffers": [
    {
      "byteLength": 10760724,
      "uri": "scene.bin"
    }
  ],
  "images": [
    {
      "uri": "textures/ground_baseColor.png"
    },
    {
      "uri": "textures/ground_metallicRoughness.png"
    },
    {
      "uri": "textures/ground_normal.png"
    }
  ],
  "materials": [
    {
      "doubleSided": true,
      "name": "ground",
      "normalTexture": {
        "index": 2,
        "texCoord": 2
      },
      "occlusionTexture": {
        "index": 1
      },
      "pbrMetallicRoughness": {
        "baseColorTexture": {
          "index": 0
        },
        "metallicFactor": 0.1480564024390244,
        "metallicRoughnessTexture": {
          "index": 1,
          "texCoord": 1
        }
      }
    }
  ],
  "meshes": [
    {
      "name": "ground_0",
      "primitives": [
        {
          "attributes": {
            "NORMAL": 1,
            "POSITION": 0,
            "TANGENT": 2,
            "TEXCOORD_0": 3,
            "TEXCOORD_1": 4,
            "TEXCOORD_2": 5,
            "TEXCOORD_3": 6
          },
          "indices": 7,
          "material": 0,
          "mode": 4
        }
      ]
    },
    {
      "name": "ground_0",
      "primitives": [
        {
          "attributes": {
            "NORMAL": 9,
            "POSITION": 8,
            "TANGENT": 10,
            "TEXCOORD_0": 11,
            "TEXCOORD_1": 12,
            "TEXCOORD_2": 13,
            "TEXCOORD_3": 14
          },
          "indices": 15,
          "material": 0,
          "mode": 4
        }
      ]
    }
  ],
  "nodes": [
    {
      "children": [
        1
      ],
      "matrix": [
        1.0,
        0.0,
        0.0,
        0.0,
        0.0,
        2.220446049250313e-16,
        -1.0,
        0.0,
        0.0,
        1.0,
        2.220446049250313e-16,
        0.0,
        0.0,
        0.0,
        0.0,
        1.0
      ],
      "name": "Sketchfab_model"
    },
    {
      "children": [
        2,
        5
      ],
      "name": "Root"
    },
    {
      "children": [
        3,
        4
      ],
      "name": "ground"
    },
    {
      "mesh": 0,
      "name": "ground_0"
    },
    {
      "mesh": 1,
      "name": "ground_0"
    },
    {
      "children": [
        6
      ],
      "matrix": [
        1.0,
        0.0,
        0.0,
        0.0,
        0.0,
        1.0,
        0.0,
        0.0,
        0.0,
        0.0,
        1.0,
        0.0,
        0.0,
        5.867959999999999,
        0.0,
        1.0
      ],
      "name": "Hemi"
    },
    {
      "name": "Hemi"
    }
  ],
  "samplers": [
    {
      "magFilter": 9729,
      "minFilter": 9987,
      "wrapS": 10497,
      "wrapT": 10497
    }
  ],
  "scene": 0,
  "scenes": [
    {
      "name": "Sketchfab_Scene",
      "nodes": [
        0
      ]
    }
  ],
  "textures": [
    {
      "sampler": 0,
      "source": 0
    },
    {
      "sampler": 0,
      "source": 1
    },
    {
      "sampler": 0,
      "source": 2
    }
  ]
}
